<svg id="Layer_1" data-name="Layer 1" xmlns="http://www.w3.org/2000/svg" xmlns:xlink="http://www.w3.org/1999/xlink" viewBox="0 0 280 300"><defs><style>.cls-1{fill:none;}.cls-2{clip-path:url(#clip-path);}.cls-3{fill:#fff;}.cls-4{fill:#231f20;}.cls-5{clip-path:url(#clip-path-2);}.cls-6{clip-path:url(#clip-path-3);}</style><clipPath id="clip-path"><path class="cls-1" d="M130,149.74c8.49-7.78,7.43-12.59,7.43-12.59-.49-14.65-15.24-14.77-15.24-14.77H94.4v11.4l7.33.11v32.05H94.3V177.4h28.23c13.87-.35,14.65-13,14.65-13C138,155.75,130,149.74,130,149.74Zm-16.2-15.07h11v8.21h-11Zm11.18,30.92H113.76v-9.06h11.18Z"/></clipPath><clipPath id="clip-path-2"><polygon class="cls-1" points="140.29 133.82 140.29 122.36 161.45 122.36 170.64 147.13 179.49 122.5 200.78 122.5 200.78 133.68 193.5 133.68 193.5 165.94 200.78 165.94 200.78 177.26 181.82 177.26 181.82 145.64 170.64 177.19 159.32 145.57 159.32 177.26 140.15 177.26 140.15 165.8 147.72 165.8 147.72 133.9 140.29 133.82"/></clipPath><clipPath id="clip-path-3"><polygon class="cls-1" points="63.39 177.26 63.39 165.85 71.05 165.85 71.05 133.8 63.28 133.8 63.28 122.55 90.34 122.55 90.34 133.63 82.95 133.63 82.95 165.91 90.45 165.91 90.45 177.21 63.39 177.26"/></clipPath></defs><title>ibm logo</title><g class="cls-2"><rect class="cls-3" x="56.87" y="169.94" width="152.33" height="3.3"/><rect class="cls-4" x="56.87" y="173.08" width="152.33" height="4.26"/><rect class="cls-3" x="56.87" y="163.07" width="152.33" height="3.3"/><rect class="cls-4" x="56.87" y="166.22" width="152.33" height="4.26"/><rect class="cls-3" x="56.87" y="155.64" width="152.33" height="3.3"/><rect class="cls-4" x="56.87" y="158.79" width="152.33" height="4.26"/><rect class="cls-3" x="56.87" y="148.21" width="152.33" height="3.3"/><rect class="cls-4" x="56.87" y="151.35" width="152.33" height="4.26"/><rect class="cls-3" x="56.87" y="140.77" width="152.33" height="3.3"/><rect class="cls-4" x="56.87" y="143.92" width="152.33" height="4.26"/><rect class="cls-3" x="56.87" y="133.91" width="152.33" height="3.3"/><rect class="cls-4" x="56.87" y="137.06" width="152.33" height="4.26"/><rect class="cls-3" x="56.87" y="126.48" width="152.33" height="3.3"/><rect class="cls-4" x="56.87" y="129.62" width="152.33" height="4.26"/><rect class="cls-4" x="56.87" y="122.19" width="152.33" height="4.26"/></g><g class="cls-5"><rect class="cls-3" x="56.87" y="169.94" width="152.33" height="3.3"/><rect class="cls-4" x="56.87" y="173.08" width="152.33" height="4.26"/><rect class="cls-3" x="56.87" y="163.07" width="152.33" height="3.3"/><rect class="cls-4" x="56.87" y="166.22" width="152.33" height="4.26"/><rect class="cls-3" x="56.87" y="155.64" width="152.33" height="3.3"/><rect class="cls-4" x="56.87" y="158.79" width="152.33" height="4.26"/><rect class="cls-3" x="56.87" y="148.21" width="152.33" height="3.3"/><rect class="cls-4" x="56.87" y="151.35" width="152.33" height="4.26"/><rect class="cls-3" x="56.87" y="140.77" width="152.33" height="3.3"/><rect class="cls-4" x="56.87" y="143.92" width="152.33" height="4.26"/><rect class="cls-3" x="56.87" y="133.91" width="152.33" height="3.3"/><rect class="cls-4" x="56.87" y="137.06" width="152.33" height="4.26"/><rect class="cls-3" x="56.87" y="126.48" width="152.33" height="3.3"/><rect class="cls-4" x="56.87" y="129.62" width="152.33" height="4.26"/><rect class="cls-4" x="56.87" y="122.19" width="152.33" height="4.26"/></g><g class="cls-6"><rect class="cls-3" x="56.87" y="169.94" width="152.33" height="3.3"/><rect class="cls-4" x="56.87" y="173.08" width="152.33" height="4.26"/><rect class="cls-3" x="56.87" y="163.07" width="152.33" height="3.3"/><rect class="cls-4" x="56.87" y="166.22" width="152.33" height="4.26"/><rect class="cls-3" x="56.87" y="155.64" width="152.33" height="3.3"/><rect class="cls-4" x="56.87" y="158.79" width="152.33" height="4.26"/><rect class="cls-3" x="56.87" y="148.21" width="152.33" height="3.3"/><rect class="cls-4" x="56.87" y="151.35" width="152.33" height="4.26"/><rect class="cls-3" x="56.87" y="140.77" width="152.33" height="3.3"/><rect class="cls-4" x="56.87" y="143.92" width="152.33" height="4.26"/><rect class="cls-3" x="56.87" y="133.91" width="152.33" height="3.3"/><rect class="cls-4" x="56.87" y="137.06" width="152.33" height="4.26"/><rect class="cls-3" x="56.87" y="126.48" width="152.33" height="3.3"/><rect class="cls-4" x="56.87" y="129.62" width="152.33" height="4.26"/><rect class="cls-4" x="56.87" y="122.19" width="152.33" height="4.26"/></g><path class="cls-4" d="M210.48,177.64a6.24,6.24,0,1,1,6.24-6.24A6.25,6.25,0,0,1,210.48,177.64Zm0-11.45a5.21,5.21,0,1,0,5.21,5.21A5.21,5.21,0,0,0,210.48,166.19Z"/><path class="cls-4" d="M208.06,174.84v-6.61H211a3.91,3.91,0,0,1,1.35.18,1.44,1.44,0,0,1,.73.63,1.82,1.82,0,0,1,.28,1,1.64,1.64,0,0,1-.46,1.18,2.31,2.31,0,0,1-1.4.62,2.5,2.5,0,0,1,.52.32,4.46,4.46,0,0,1,.73.89l1.15,1.79h-1.1l-.88-1.37a9.46,9.46,0,0,0-.63-.91,2.09,2.09,0,0,0-.44-.45,1.38,1.38,0,0,0-.4-.17,2.77,2.77,0,0,0-.49,0h-1v2.93Zm.88-3.69h1.88a2.65,2.65,0,0,0,.94-.13,1,1,0,0,0,.51-.39,1,1,0,0,0,.18-.59,1,1,0,0,0-.34-.78A1.62,1.62,0,0,0,211,169h-2.09Z"/></svg>